<svg width="507" height="153" viewBox="0 0 507 153" fill="none" xmlns="http://www.w3.org/2000/svg">
<path d="M38.3125 123.5C21.375 123.5 9.3125 115.875 5.9375 105C5.5625 103.75 5.3125 102.375 5.3125 101.062C5.3125 97.5 7.3125 95.25 10.5 95.25C13.3125 95.25 15.0625 96.6875 15.9375 99.6875C18.6875 109 27.5625 113.375 38.9375 113.375C51.1875 113.375 60.0625 106.938 60.0625 98.0625C60.0625 90.5 55.0625 85.5 42.5625 82.75L32.5625 80.5625C14.5 76.625 6.6875 68.4375 6.6875 55.625C6.6875 40.75 19.8125 30.3125 38.5 30.3125C53.5625 30.3125 65.6875 37.875 68.9375 50.0625C69.125 50.75 69.25 51.6875 69.25 52.875C69.25 55.9375 67.125 57.9375 64.125 57.9375C61.25 57.9375 59.5 56.4375 58.5 53.5625C55.375 44.4375 47.9375 40.4375 38.1875 40.4375C26.9375 40.4375 18.25 45.9375 18.25 55.125C18.25 62.25 23.0625 67.125 35.375 69.8125L45.375 72C64.1875 76.125 71.625 83.625 71.625 96.375C71.625 113.062 58.5 123.5 38.3125 123.5ZM102 123.125C89.0625 123.125 80.375 115.312 80.375 103.625C80.375 92.5 88.9375 85.5 103.938 84.625L122.625 83.5625V78.125C122.625 70.1875 117.375 65.4375 108.375 65.4375C101.312 65.4375 96.5 68 92.875 74.4375C91.875 76.25 90.4375 77.0625 88.375 77.0625C85.5625 77.0625 83.5625 75.125 83.5625 72.1875C83.5625 70.8125 84 69.25 84.875 67.6875C88.5625 60.5625 98.0625 55.875 108.625 55.875C123.875 55.875 133.5 64.125 133.5 77.0625V117.625C133.5 120.875 131.375 123.125 128.375 123.125C125.312 123.125 123.188 120.875 123.188 117.625V110.812H122.938C119.062 118.25 110.75 123.125 102 123.125ZM104.438 113.875C114.688 113.875 122.625 106.688 122.625 97.3125V92L105.188 93.0625C96.4375 93.625 91.4375 97.5 91.4375 103.625C91.4375 109.812 96.625 113.875 104.438 113.875ZM166.25 123.125C153.312 123.125 144.625 115.312 144.625 103.625C144.625 92.5 153.188 85.5 168.188 84.625L186.875 83.5625V78.125C186.875 70.1875 181.625 65.4375 172.625 65.4375C165.562 65.4375 160.75 68 157.125 74.4375C156.125 76.25 154.688 77.0625 152.625 77.0625C149.812 77.0625 147.812 75.125 147.812 72.1875C147.812 70.8125 148.25 69.25 149.125 67.6875C152.812 60.5625 162.312 55.875 172.875 55.875C188.125 55.875 197.75 64.125 197.75 77.0625V117.625C197.75 120.875 195.625 123.125 192.625 123.125C189.562 123.125 187.438 120.875 187.438 117.625V110.812H187.188C183.312 118.25 175 123.125 166.25 123.125ZM168.688 113.875C178.938 113.875 186.875 106.688 186.875 97.3125V92L169.438 93.0625C160.688 93.625 155.688 97.5 155.688 103.625C155.688 109.812 160.875 113.875 168.688 113.875ZM215.062 107V65.9375H209.625C206.5 65.9375 204.75 64.3125 204.75 61.4375C204.75 58.625 206.5 57 209.625 57H215.062V45.875C215.062 42.4375 217.312 40.0625 220.5 40.0625C223.688 40.0625 225.938 42.4375 225.938 45.875V57H234.312C237.438 57 239.188 58.625 239.188 61.4375C239.188 64.3125 237.438 65.9375 234.312 65.9375H225.938V104.625C225.938 110.125 227.875 112.75 233.312 113.125L234.25 113.188C237.812 113.438 239.438 114.875 239.438 117.438C239.438 120.75 237.562 122.5 231.5 122.5H230.812C220.312 122.5 215.062 117.375 215.062 107ZM256.188 123.125C253 123.125 250.75 120.75 250.75 117.312V36.375C250.75 33 252.938 30.6875 256.188 30.6875C259.5 30.6875 261.625 33 261.625 36.375V67.375H261.875C265.5 60.125 272.625 55.875 282.5 55.875C296.75 55.875 305.375 65.5 305.375 80V117.312C305.375 120.75 303.125 123.125 299.938 123.125C296.75 123.125 294.5 120.75 294.5 117.312V82C294.5 71.6875 289.312 65.5 279.125 65.5C268.312 65.5 261.625 72.875 261.625 84.125V117.312C261.625 120.75 259.375 123.125 256.188 123.125Z" fill="#098CD5"/>
<path d="M326.5 122.875C323.062 122.875 320.875 120.625 320.875 117.062V37.625C320.875 34.0625 323.062 31.8125 326.5 31.8125H353.062C370 31.8125 381.938 43.6875 381.938 60.75C381.938 77.875 369.875 89.8125 352.938 89.8125H332.125V117.062C332.125 120.625 329.938 122.875 326.5 122.875ZM332.125 79.8125H350.125C363 79.8125 370.375 72.75 370.375 60.75C370.375 48.8125 363.062 41.8125 350.125 41.8125H332.125V79.8125ZM406.5 123.125C393.562 123.125 384.875 115.312 384.875 103.625C384.875 92.5 393.438 85.5 408.438 84.625L427.125 83.5625V78.125C427.125 70.1875 421.875 65.4375 412.875 65.4375C405.812 65.4375 401 68 397.375 74.4375C396.375 76.25 394.938 77.0625 392.875 77.0625C390.062 77.0625 388.062 75.125 388.062 72.1875C388.062 70.8125 388.5 69.25 389.375 67.6875C393.062 60.5625 402.562 55.875 413.125 55.875C428.375 55.875 438 64.125 438 77.0625V117.625C438 120.875 435.875 123.125 432.875 123.125C429.812 123.125 427.688 120.875 427.688 117.625V110.812H427.438C423.562 118.25 415.25 123.125 406.5 123.125ZM408.938 113.875C419.188 113.875 427.125 106.688 427.125 97.3125V92L409.688 93.0625C400.938 93.625 395.938 97.5 395.938 103.625C395.938 109.812 401.125 113.875 408.938 113.875ZM458.188 146.312C452.938 146.312 450 144.375 450 140.938C450 138.562 451.625 136.938 454.375 136.938C455.938 136.938 456.375 137 458.062 137C462.188 137 466.125 134.5 468.688 126.625L470.188 122.062L447.812 63.75C447.438 62.6875 447.25 61.6875 447.25 60.875C447.25 57.875 449.562 55.875 452.688 55.875C455.25 55.875 456.875 57 457.875 59.875L475.812 111.125H476L494 59.875C495 57 496.438 55.875 499.125 55.875C502.25 55.875 504.438 57.9375 504.438 60.875C504.438 61.6875 504.25 62.6875 503.875 63.75L479.875 126.562C474.25 141.5 468.938 146.312 458.188 146.312Z" fill="#60B533"/>
</svg>
