<svg width="810" height="198" viewBox="0 0 810 198" fill="none" xmlns="http://www.w3.org/2000/svg">
<rect y="131.641" width="186.168" height="93.4306" rx="46.7153" transform="rotate(-45 0 131.641)" fill="#60B533"/>
<rect x="85.4365" y="131.641" width="186.168" height="93.4306" rx="46.7153" transform="rotate(-45 85.4365 131.641)" fill="#098CD5"/>
<path d="M341.312 145.5C324.375 145.5 312.312 137.875 308.938 127C308.562 125.75 308.312 124.375 308.312 123.062C308.312 119.5 310.312 117.25 313.5 117.25C316.312 117.25 318.062 118.688 318.938 121.688C321.688 131 330.562 135.375 341.938 135.375C354.188 135.375 363.062 128.938 363.062 120.062C363.062 112.5 358.062 107.5 345.562 104.75L335.562 102.562C317.5 98.625 309.688 90.4375 309.688 77.625C309.688 62.75 322.812 52.3125 341.5 52.3125C356.562 52.3125 368.688 59.875 371.938 72.0625C372.125 72.75 372.25 73.6875 372.25 74.875C372.25 77.9375 370.125 79.9375 367.125 79.9375C364.25 79.9375 362.5 78.4375 361.5 75.5625C358.375 66.4375 350.938 62.4375 341.188 62.4375C329.938 62.4375 321.25 67.9375 321.25 77.125C321.25 84.25 326.062 89.125 338.375 91.8125L348.375 94C367.188 98.125 374.625 105.625 374.625 118.375C374.625 135.062 361.5 145.5 341.312 145.5ZM405 145.125C392.062 145.125 383.375 137.312 383.375 125.625C383.375 114.5 391.938 107.5 406.938 106.625L425.625 105.562V100.125C425.625 92.1875 420.375 87.4375 411.375 87.4375C404.312 87.4375 399.5 90 395.875 96.4375C394.875 98.25 393.438 99.0625 391.375 99.0625C388.562 99.0625 386.562 97.125 386.562 94.1875C386.562 92.8125 387 91.25 387.875 89.6875C391.562 82.5625 401.062 77.875 411.625 77.875C426.875 77.875 436.5 86.125 436.5 99.0625V139.625C436.5 142.875 434.375 145.125 431.375 145.125C428.312 145.125 426.188 142.875 426.188 139.625V132.812H425.938C422.062 140.25 413.75 145.125 405 145.125ZM407.438 135.875C417.688 135.875 425.625 128.688 425.625 119.312V114L408.188 115.062C399.438 115.625 394.438 119.5 394.438 125.625C394.438 131.812 399.625 135.875 407.438 135.875ZM469.25 145.125C456.312 145.125 447.625 137.312 447.625 125.625C447.625 114.5 456.188 107.5 471.188 106.625L489.875 105.562V100.125C489.875 92.1875 484.625 87.4375 475.625 87.4375C468.562 87.4375 463.75 90 460.125 96.4375C459.125 98.25 457.688 99.0625 455.625 99.0625C452.812 99.0625 450.812 97.125 450.812 94.1875C450.812 92.8125 451.25 91.25 452.125 89.6875C455.812 82.5625 465.312 77.875 475.875 77.875C491.125 77.875 500.75 86.125 500.75 99.0625V139.625C500.75 142.875 498.625 145.125 495.625 145.125C492.562 145.125 490.438 142.875 490.438 139.625V132.812H490.188C486.312 140.25 478 145.125 469.25 145.125ZM471.688 135.875C481.938 135.875 489.875 128.688 489.875 119.312V114L472.438 115.062C463.688 115.625 458.688 119.5 458.688 125.625C458.688 131.812 463.875 135.875 471.688 135.875ZM518.062 129V87.9375H512.625C509.5 87.9375 507.75 86.3125 507.75 83.4375C507.75 80.625 509.5 79 512.625 79H518.062V67.875C518.062 64.4375 520.312 62.0625 523.5 62.0625C526.688 62.0625 528.938 64.4375 528.938 67.875V79H537.312C540.438 79 542.188 80.625 542.188 83.4375C542.188 86.3125 540.438 87.9375 537.312 87.9375H528.938V126.625C528.938 132.125 530.875 134.75 536.312 135.125L537.25 135.188C540.812 135.438 542.438 136.875 542.438 139.438C542.438 142.75 540.562 144.5 534.5 144.5H533.812C523.312 144.5 518.062 139.375 518.062 129ZM559.188 145.125C556 145.125 553.75 142.75 553.75 139.312V58.375C553.75 55 555.938 52.6875 559.188 52.6875C562.5 52.6875 564.625 55 564.625 58.375V89.375H564.875C568.5 82.125 575.625 77.875 585.5 77.875C599.75 77.875 608.375 87.5 608.375 102V139.312C608.375 142.75 606.125 145.125 602.938 145.125C599.75 145.125 597.5 142.75 597.5 139.312V104C597.5 93.6875 592.312 87.5 582.125 87.5C571.312 87.5 564.625 94.875 564.625 106.125V139.312C564.625 142.75 562.375 145.125 559.188 145.125Z" fill="#098CD5"/>
<path d="M629.5 144.875C626.062 144.875 623.875 142.625 623.875 139.062V59.625C623.875 56.0625 626.062 53.8125 629.5 53.8125H656.062C673 53.8125 684.938 65.6875 684.938 82.75C684.938 99.875 672.875 111.812 655.938 111.812H635.125V139.062C635.125 142.625 632.938 144.875 629.5 144.875ZM635.125 101.812H653.125C666 101.812 673.375 94.75 673.375 82.75C673.375 70.8125 666.062 63.8125 653.125 63.8125H635.125V101.812ZM709.5 145.125C696.562 145.125 687.875 137.312 687.875 125.625C687.875 114.5 696.438 107.5 711.438 106.625L730.125 105.562V100.125C730.125 92.1875 724.875 87.4375 715.875 87.4375C708.812 87.4375 704 90 700.375 96.4375C699.375 98.25 697.938 99.0625 695.875 99.0625C693.062 99.0625 691.062 97.125 691.062 94.1875C691.062 92.8125 691.5 91.25 692.375 89.6875C696.062 82.5625 705.562 77.875 716.125 77.875C731.375 77.875 741 86.125 741 99.0625V139.625C741 142.875 738.875 145.125 735.875 145.125C732.812 145.125 730.688 142.875 730.688 139.625V132.812H730.438C726.562 140.25 718.25 145.125 709.5 145.125ZM711.938 135.875C722.188 135.875 730.125 128.688 730.125 119.312V114L712.688 115.062C703.938 115.625 698.938 119.5 698.938 125.625C698.938 131.812 704.125 135.875 711.938 135.875ZM761.188 168.312C755.938 168.312 753 166.375 753 162.938C753 160.562 754.625 158.938 757.375 158.938C758.938 158.938 759.375 159 761.062 159C765.188 159 769.125 156.5 771.688 148.625L773.188 144.062L750.812 85.75C750.438 84.6875 750.25 83.6875 750.25 82.875C750.25 79.875 752.562 77.875 755.688 77.875C758.25 77.875 759.875 79 760.875 81.875L778.812 133.125H779L797 81.875C798 79 799.438 77.875 802.125 77.875C805.25 77.875 807.438 79.9375 807.438 82.875C807.438 83.6875 807.25 84.6875 806.875 85.75L782.875 148.562C777.25 163.5 771.938 168.312 761.188 168.312Z" fill="#60B533"/>
</svg>
